<svg xmlns="http://www.w3.org/2000/svg" width="800" height="500" viewBox="0 0 800 500">
  <defs>
    <linearGradient id="apex-bg" x1="0%" y1="0%" x2="100%" y2="100%">
      <stop offset="0%" stop-color="#0a0a0a"/>
      <stop offset="50%" stop-color="#141414"/>
      <stop offset="100%" stop-color="#050505"/>
    </linearGradient>
    <linearGradient id="apex-accent" x1="0%" y1="0%" x2="100%" y2="0%">
      <stop offset="0%" stop-color="#00ff88"/>
      <stop offset="100%" stop-color="#00cc6a"/>
    </linearGradient>
    <radialGradient id="apex-glow" cx="50%" cy="50%" r="50%">
      <stop offset="0%" stop-color="#00ff88" stop-opacity="0.15"/>
      <stop offset="100%" stop-color="#00ff88" stop-opacity="0"/>
    </radialGradient>
  </defs>
  <rect width="800" height="500" fill="url(#apex-bg)"/>
  <circle cx="400" cy="250" r="220" fill="url(#apex-glow)"/>
  <line x1="50" y1="50" x2="200" y2="50" stroke="#00ff88" stroke-width="1" opacity="0.3"/>
  <line x1="50" y1="60" x2="150" y2="60" stroke="#00ff88" stroke-width="0.5" opacity="0.15"/>
  <text x="400" y="220" font-family="Inter, sans-serif" font-size="120" font-weight="800" fill="white" text-anchor="middle" letter-spacing="15" opacity="0.08">APEX</text>
  <text x="60" y="280" font-family="Inter, sans-serif" font-size="64" font-weight="800" fill="white" letter-spacing="-2">APEX</text>
  <text x="60" y="330" font-family="Inter, sans-serif" font-size="64" font-weight="300" fill="#00ff88" letter-spacing="-1">PERFORMANCE</text>
  <rect x="60" y="355" width="60" height="3" fill="url(#apex-accent)"/>
  <text x="60" y="390" font-family="Inter, sans-serif" font-size="11" fill="#666" letter-spacing="4" text-transform="uppercase">Fitness · Brand Concept</text>
  <circle cx="700" cy="380" r="80" fill="none" stroke="#00ff88" stroke-width="0.5" opacity="0.15"/>
  <circle cx="700" cy="380" r="50" fill="none" stroke="#00ff88" stroke-width="0.5" opacity="0.1"/>
  <rect x="680" y="100" width="40" height="40" fill="none" stroke="#00ff88" stroke-width="1" opacity="0.2" transform="rotate(45 700 120)"/>
  <line x1="720" y1="430" x2="750" y2="460" stroke="#00ff88" stroke-width="0.5" opacity="0.2"/>
  <line x1="730" y1="430" x2="760" y2="460" stroke="#00ff88" stroke-width="0.5" opacity="0.1"/>
  <rect x="60" y="420" width="8" height="8" fill="#00ff88" opacity="0.4"/>
  <rect x="80" y="420" width="8" height="8" fill="#00ff88" opacity="0.2"/>
  <rect x="100" y="420" width="8" height="8" fill="#00ff88" opacity="0.1"/>
</svg>