<svg xmlns="http://www.w3.org/2000/svg" width="400" height="500" viewBox="0 0 400 500">
  <defs>
    <linearGradient id="den-bg" x1="0%" y1="0%" x2="100%" y2="100%">
      <stop offset="0%" stop-color="#0a1628"/>
      <stop offset="50%" stop-color="#0f2847"/>
      <stop offset="100%" stop-color="#071020"/>
    </linearGradient>
    <linearGradient id="den-blue" x1="0%" y1="0%" x2="100%" y2="0%">
      <stop offset="0%" stop-color="#4fc3f7"/>
      <stop offset="100%" stop-color="#0288d1"/>
    </linearGradient>
    <radialGradient id="den-glow" cx="50%" cy="30%" r="60%">
      <stop offset="0%" stop-color="#4fc3f7" stop-opacity="0.06"/>
      <stop offset="100%" stop-color="#4fc3f7" stop-opacity="0"/>
    </radialGradient>
  </defs>
  <rect width="400" height="500" fill="url(#den-bg)"/>
  <circle cx="200" cy="150" r="200" fill="url(#den-glow)"/>
  <path d="M200 80 Q230 120 200 150 Q170 120 200 80Z" fill="none" stroke="url(#den-blue)" stroke-width="0.5" opacity="0.15"/>
  <path d="M200 100 Q215 120 200 135 Q185 120 200 100Z" fill="none" stroke="url(#den-blue)" stroke-width="0.3" opacity="0.1"/>
  <text x="200" y="260" font-family="Inter, sans-serif" font-size="36" font-weight="300" fill="white" text-anchor="middle" letter-spacing="6">DENTAL</text>
  <text x="200" y="300" font-family="Georgia, serif" font-size="28" font-weight="400" fill="url(#den-blue)" text-anchor="middle" letter-spacing="4">Castle</text>
  <rect x="120" y="320" width="160" height="1" fill="url(#den-blue)" opacity="0.2"/>
  <text x="200" y="350" font-family="Inter, sans-serif" font-size="9" fill="#5a8a9a" text-anchor="middle" letter-spacing="4">PROFESSIONAL DENTAL CARE</text>
  <circle cx="320" cy="420" r="50" fill="none" stroke="#4fc3f7" stroke-width="0.3" opacity="0.08"/>
  <rect x="70" y="400" width="30" height="30" rx="15" fill="none" stroke="#4fc3f7" stroke-width="0.5" opacity="0.1"/>
  <line x1="55" y1="55" x2="100" y2="55" stroke="#4fc3f7" stroke-width="0.5" opacity="0.15"/>
  <line x1="55" y1="65" x2="80" y2="65" stroke="#4fc3f7" stroke-width="0.3" opacity="0.08"/>
  <rect x="160" y="390" width="6" height="6" rx="3" fill="#4fc3f7" opacity="0.3"/>
  <rect x="180" y="390" width="6" height="6" rx="3" fill="#4fc3f7" opacity="0.15"/>
  <rect x="200" y="390" width="6" height="6" rx="3" fill="#4fc3f7" opacity="0.08"/>
</svg>