<svg xmlns="http://www.w3.org/2000/svg" width="800" height="500" viewBox="0 0 800 500">
  <defs>
    <linearGradient id="zai-bg" x1="0%" y1="0%" x2="100%" y2="100%">
      <stop offset="0%" stop-color="#1a0000"/>
      <stop offset="30%" stop-color="#3d0008"/>
      <stop offset="70%" stop-color="#5c0010"/>
      <stop offset="100%" stop-color="#2d0004"/>
    </linearGradient>
    <linearGradient id="zai-gold" x1="0%" y1="0%" x2="100%" y2="100%">
      <stop offset="0%" stop-color="#f0d68a"/>
      <stop offset="50%" stop-color="#c9a84c"/>
      <stop offset="100%" stop-color="#a0842e"/>
    </linearGradient>
    <radialGradient id="zai-glow" cx="50%" cy="40%" r="50%">
      <stop offset="0%" stop-color="#c9a84c" stop-opacity="0.08"/>
      <stop offset="100%" stop-color="#c9a84c" stop-opacity="0"/>
    </radialGradient>
    <pattern id="zai-pattern" x="0" y="0" width="40" height="40" patternUnits="userSpaceOnUse">
      <circle cx="20" cy="20" r="1" fill="#c9a84c" opacity="0.05"/>
    </pattern>
  </defs>
  <rect width="800" height="500" fill="url(#zai-bg)"/>
  <rect width="800" height="500" fill="url(#zai-pattern)"/>
  <circle cx="400" cy="200" r="250" fill="url(#zai-glow)"/>
  <path d="M400 120 Q480 200 400 280 Q320 200 400 120Z" fill="none" stroke="url(#zai-gold)" stroke-width="0.5" opacity="0.15"/>
  <path d="M400 160 Q440 200 400 240 Q360 200 400 160Z" fill="none" stroke="url(#zai-gold)" stroke-width="0.3" opacity="0.1"/>
  <line x1="50" y1="50" x2="150" y2="50" stroke="url(#zai-gold)" stroke-width="0.5" opacity="0.2"/>
  <text x="60" y="290" font-family="Georgia, serif" font-size="72" font-weight="700" fill="url(#zai-gold)" letter-spacing="4">ZAIKA</text>
  <text x="62" y="340" font-family="Inter, sans-serif" font-size="11" fill="#f0d68a" letter-spacing="8" opacity="0.5">FINE DINING</text>
  <rect x="60" y="360" width="80" height="1" fill="url(#zai-gold)" opacity="0.3"/>
  <text x="60" y="390" font-family="Inter, sans-serif" font-size="10" fill="#8a6040" letter-spacing="3">Indian Cuisine · Luxury Experience</text>
  <circle cx="700" cy="380" r="70" fill="none" stroke="#c9a84c" stroke-width="0.3" opacity="0.1"/>
  <path d="M680 80 Q700 100 720 80" stroke="#c9a84c" stroke-width="0.5" fill="none" opacity="0.12"/>
  <path d="M690 90 Q710 110 730 90" stroke="#c9a84c" stroke-width="0.3" fill="none" opacity="0.08"/>
  <rect x="60" y="420" width="70" height="1" fill="#c9a84c" opacity="0.15"/>
  <rect x="60" y="430" width="40" height="1" fill="#c9a84c" opacity="0.08"/>
</svg>